<svg width="50" height="51" viewBox="0 0 50 51" fill="none" xmlns="http://www.w3.org/2000/svg">
<path d="M0 0.546875H46C48.2091 0.546875 50 2.33774 50 4.54687V46.5469C50 48.756 48.2091 50.5469 46 50.5469H0V0.546875Z" fill="#272933"></path>
<path d="M29.1617 16.5469C28.0854 16.5469 27.1681 17.2363 26.8208 18.1832H15.8442C15.7339 18.1817 15.6244 18.2017 15.522 18.2422C15.4197 18.2826 15.3265 18.3426 15.248 18.4187C15.1694 18.4949 15.1071 18.5856 15.0645 18.6856C15.0219 18.7856 15 18.893 15 19.0014C15 19.1099 15.0219 19.2172 15.0645 19.3172C15.1071 19.4173 15.1694 19.508 15.248 19.5841C15.3265 19.6602 15.4197 19.7202 15.522 19.7607C15.6244 19.8011 15.7339 19.8211 15.8442 19.8196H26.8208C27.1681 20.7665 28.0854 21.456 29.1617 21.456C30.2381 21.456 31.1553 20.7665 31.5027 19.8196H34.1558C34.2661 19.8211 34.3756 19.8011 34.478 19.7607C34.5803 19.7202 34.6735 19.6602 34.752 19.5841C34.8306 19.508 34.8929 19.4173 34.9355 19.3172C34.9781 19.2172 35 19.1099 35 19.0014C35 18.893 34.9781 18.7856 34.9355 18.6856C34.8929 18.5856 34.8306 18.4949 34.752 18.4187C34.6735 18.3426 34.5803 18.2826 34.478 18.2422C34.3756 18.2017 34.2661 18.1817 34.1558 18.1832H31.5027C31.1553 17.2363 30.2381 16.5469 29.1617 16.5469ZM29.1617 18.1832C29.6144 18.1832 29.9595 18.5177 29.9843 18.9551C29.9825 18.9865 29.9825 19.018 29.9843 19.0494C29.9587 19.4859 29.6138 19.8196 29.1617 19.8196C28.7091 19.8196 28.364 19.4851 28.3391 19.0478C28.341 19.0164 28.341 18.9849 28.3391 18.9535C28.3648 18.5169 28.7096 18.1832 29.1617 18.1832ZM22.503 23.0923C21.4266 23.0923 20.5094 23.7818 20.162 24.7287H15.8442C15.7339 24.7272 15.6244 24.7472 15.522 24.7876C15.4197 24.828 15.3265 24.8881 15.248 24.9642C15.1694 25.0403 15.1071 25.131 15.0645 25.2311C15.0219 25.3311 15 25.4384 15 25.5469C15 25.6553 15.0219 25.7627 15.0645 25.8627C15.1071 25.9627 15.1694 26.0534 15.248 26.1296C15.3265 26.2057 15.4197 26.2657 15.522 26.3061C15.6244 26.3466 15.7339 26.3666 15.8442 26.3651H20.162C20.5094 27.312 21.4266 28.0014 22.503 28.0014C23.5793 28.0014 24.4965 27.312 24.8439 26.3651H34.1558C34.2661 26.3666 34.3756 26.3466 34.478 26.3061C34.5803 26.2657 34.6735 26.2057 34.752 26.1296C34.8306 26.0534 34.8929 25.9627 34.9355 25.8627C34.9781 25.7627 35 25.6553 35 25.5469C35 25.4384 34.9781 25.3311 34.9355 25.2311C34.8929 25.131 34.8306 25.0403 34.752 24.9642C34.6735 24.8881 34.5803 24.828 34.478 24.7876C34.3756 24.7472 34.2661 24.7272 34.1558 24.7287H24.8439C24.4965 23.7818 23.5793 23.0923 22.503 23.0923ZM22.503 24.7287C22.9556 24.7287 23.3007 25.0632 23.3256 25.5005C23.3237 25.5319 23.3237 25.5634 23.3256 25.5948C23.2999 26.0314 22.9551 26.3651 22.503 26.3651C22.0503 26.3651 21.7052 26.0306 21.6804 25.5932C21.6822 25.5618 21.6822 25.5303 21.6804 25.4989C21.706 25.0624 22.0509 24.7287 22.503 24.7287ZM25.8323 29.6378C24.756 29.6378 23.8388 30.3272 23.4914 31.2741H15.8442C15.7339 31.2726 15.6244 31.2926 15.522 31.3331C15.4197 31.3735 15.3265 31.4335 15.248 31.5097C15.1694 31.5858 15.1071 31.6765 15.0645 31.7765C15.0219 31.8766 15 31.9839 15 32.0923C15 32.2008 15.0219 32.3081 15.0645 32.4081C15.1071 32.5082 15.1694 32.5989 15.248 32.675C15.3265 32.7511 15.4197 32.8112 15.522 32.8516C15.6244 32.892 15.7339 32.912 15.8442 32.9105H23.4914C23.8388 33.8574 24.756 34.5469 25.8323 34.5469C26.9087 34.5469 27.8259 33.8574 28.1733 32.9105H34.1558C34.2661 32.912 34.3756 32.892 34.478 32.8516C34.5803 32.8112 34.6735 32.7511 34.752 32.675C34.8306 32.5989 34.8929 32.5082 34.9355 32.4081C34.9781 32.3081 35 32.2008 35 32.0923C35 31.9839 34.9781 31.8766 34.9355 31.7765C34.8929 31.6765 34.8306 31.5858 34.752 31.5097C34.6735 31.4335 34.5803 31.3735 34.478 31.3331C34.3756 31.2926 34.2661 31.2726 34.1558 31.2741H28.1733C27.8259 30.3272 26.9087 29.6378 25.8323 29.6378ZM25.8323 31.2741C26.285 31.2741 26.6301 31.6086 26.6549 32.046C26.6531 32.0774 26.6531 32.1089 26.6549 32.1403C26.6293 32.5768 26.2844 32.9105 25.8323 32.9105C25.3797 32.9105 25.0346 32.576 25.0098 32.1387C25.0116 32.1073 25.0116 32.0758 25.0098 32.0444C25.0354 31.6078 25.3803 31.2741 25.8323 31.2741Z" fill="white"></path>
</svg>